The well-known little village from the Asterix and Obelix-comic books is in trouble: It is the last place not controlled by Rome. When Tax collector Claudius Incorruptus does not get his money from the villagers, Julius Caesar himself comes to the place to see what's so special about their resistance. A special magic potion, prepared by the village's druid, gives incredible power to those who drink it. And Obelix, who fell into the pot as a child has been invincible ever since. With the help of Tullius Destructivus, an intrigeur, the Romans try to get Obelix and the druid into their hands in order to wipe the little village off the map, when the last potion of it's stock has been used up. But each individual also has some plans of his own...


General
Complete name                    : X:\Barnfilmer\Asterix.&.Obelix.Moter.Caesar.[1999].Swedish.DvdRip.XviD-Knã™\Asterix.&.Obelix.Moter.Caesar.[1999].Swedish.DvdRip.XviD-Knã™.avi
Format                           : AVI
Format/Info                      : Audio Video Interleave
File size                        : 1.37 GiB
Duration                         : 1h 45mn
Overall bit rate                 : 1 859 Kbps
Writing application              : VirtualDubMod 1.5.4.1 (build 2178/release)
Writing library                  : VirtualDubMod build 2178/release

Video
ID                               : 0
Format                           : MPEG-4 Visual
Format profile                   : Advanced Simple@L5
Format settings, BVOP            : Yes
Format settings, QPel            : No
Format settings, GMC             : No warppoints
Format settings, Matrix          : Custom
Codec ID                         : XVID
Codec ID/Hint                    : XviD
Duration                         : 1h 45mn
Bit rate                         : 1 468 Kbps
Width                            : 624 pixels
Height                           : 272 pixels
Display aspect ratio             : 2.25:1
Frame rate                       : 25.000 fps
Color space                      : YUV
Chroma subsampling               : 4:2:0
Bit depth                        : 8 bits
Scan type                        : Progressive
Bits/(Pixel*Frame)               : 0.346
Stream size                      : 1.08 GiB (79%)
Writing library                  : XviD 1.2.0.dev47 (UTC 2006-11-01)

Audio
ID                               : 1
Format                           : AC-3
Format/Info                      : Audio Coding 3
Mode extension                   : CM (complete main)
Codec ID                         : 2000
Duration                         : 1h 45mn
Bit rate mode                    : Constant
Bit rate                         : 384 Kbps
Channel(s)                       : 6 channels
Channel positions                : Front: L C R, Side: L R, LFE
Sampling rate                    : 48.0 KHz
Bit depth                        : 16 bits
Stream size                      : 289 MiB (21%)
Alignment                        : Aligned on interleaves
Interleave, duration             : 96 ms (2.40 video frames)
Interleave, preload duration     : 96 ms
Language                         : Swedish

